<?xml version="1.0" encoding="UTF-8"?>
<svg id="Capa_2" data-name="Capa 2" xmlns="http://www.w3.org/2000/svg" viewBox="0 0 134.87 134.87">
  <defs>
    <style>
      .cls-1 {
        fill: #0d7fc2;
      }
    </style>
  </defs>
  <g id="Layer_1" data-name="Layer 1">
    <g>
      <path class="cls-1" d="M134.87,67.44c0,37.24-30.19,67.44-67.44,67.44S0,104.68,0,67.44,30.19,0,67.44,0s67.44,30.19,67.44,67.44ZM126.97,67.43c0-32.88-26.65-59.53-59.53-59.53S7.91,34.56,7.91,67.43s26.65,59.53,59.53,59.53,59.53-26.65,59.53-59.53Z"/>
      <path class="cls-1" d="M18.35,67.79l49.42-.05.02-48.92c0-1.99,2.01-4.17,4.13-3.98,28.15,2.51,48.79,26.2,48.28,53.63-.52,27.89-22.96,50.69-50.76,51.71s-52.02-19.8-54.61-48.25c-.14-1.58,1.67-4.14,3.52-4.14Z"/>
    </g>
  </g>
</svg>