<?xml version="1.0" encoding="UTF-8"?>
<svg id="Capa_2" data-name="Capa 2" xmlns="http://www.w3.org/2000/svg" viewBox="0 0 104.35 104.26">
  <defs>
    <style>
      .cls-1 {
        fill: #0d7fc2;
      }
    </style>
  </defs>
  <g id="Layer_1" data-name="Layer 1">
    <g>
      <path class="cls-1" d="M98.26,103.41c-8.3.78-15.87.95-24.08.81-.12-6.64-.53-13.67-.19-19.76,7.25-15.82,9.37-38.61-6.03-50.45,2.41-6.48,7.47-11.85,14.38-13.53,5.15-1.25,10.48-.35,14.97,3.04,8.93,6.73,6.97,26.77,6.61,38.7-.09,3.05-2.36,5.02-5.79,5.89l.14,35.3Z"/>
      <path class="cls-1" d="M63.29,103.26l-22.97.25c-4.93-10.49,7.98-15.2,4.32-33.93-1.24-6.36-5.45-11.54-10.93-15.18-.14-7.97,6.53-12.37,13.49-14.18,9.36-2.44,17.93,1.83,20.97,11.35,1.74,5.45,5.74,26.78-4.64,27.61l-.24,24.08Z"/>
      <path class="cls-1" d="M26.72,103.12l-15.88.4c-1.22.03-3.63-.57-4.32-1.41-3.96-4.75,5.47-7.07-3.93-17.43-5.43-5.99-1.34-15.3,3.31-20.14,5.35-5.56,14.15-7.17,21.01-3.01,5.66,3.44,8.35,10.44,8.85,16.68.44,5.5-2.81,8.09-6.72,11.28-3.47,4.17,3.08,13.49-2.31,13.62Z"/>
      <circle class="cls-1" cx="17.77" cy="47.68" r="7.45"/>
      <path class="cls-1" d="M58.63,28.26c-1.01,4.18-4.74,6.21-7.98,5.97-3.52-.26-6.31-3.11-6.52-6.45-.24-3.81,1.95-7.38,6.52-8.17,1.56-.27,4.87.56,6.2,1.48,1.57,1.09,2.38,4.74,1.79,7.18Z"/>
      <circle class="cls-1" cx="86.03" cy="7.42" r="7.42"/>
    </g>
  </g>
</svg>