<?xml version="1.0" encoding="UTF-8"?>
<svg id="Capa_2" data-name="Capa 2" xmlns="http://www.w3.org/2000/svg" viewBox="0 0 134.74 125.12">
  <defs>
    <style>
      .cls-1 {
        fill: #0d7fc2;
      }
    </style>
  </defs>
  <g id="Layer_1" data-name="Layer 1">
    <g>
      <path class="cls-1" d="M134.69,27.68l.04,79.44c0,9.39-8.52,18.01-17.85,18.01H17.86c-9.3,0-17.81-8.67-17.81-17.99L0,28.13C0,17.9,9.05,9.79,18.72,9.74l21.82-.11.37-4.74C41.1,2.58,43.3,0,45.39,0c2.9,0,4.81,2.25,4.97,4.93l.29,4.73,33.49-.02.68-6.75c.16-1.6,3.76-3.24,5.45-2.81,1.59.4,3.48,3.05,3.61,4.73l.38,4.93,19.83-.17c9.77-.09,20.6,6.44,20.61,18.12ZM93.48,25.63c-.16,1.36-2.99,3.19-4.26,3.21s-4.18-1.47-4.3-2.71l-.69-6.89-33.38-.08-.44,4.01c-.34,3.07-1.55,5.56-4.86,5.61-1.82.03-4.47-2.42-4.59-4.31l-.34-5.35-22.72.24c-8.85.09-10.17,14.05-7.34,19.22h114.39c.34-4.2.48-7.83.1-11.39-.54-5.1-5.44-8.06-10.04-8.04l-20.8.09-.74,6.38ZM116.81,115.77c5.06-1.33,8.5-4.73,8.5-9.67v-57.9s-115.79,0-115.79,0l-.06,56.89c0,5.66,3.28,9.69,8.96,10.68h98.4Z"/>
      <path class="cls-1" d="M59.95,97.02c2.02.45,3.01,4.59,2.19,6.14-1.04,1.99-4.44,3.26-7.28,3.16-2.55-.09-5.31-1.36-6.38-3.34-.82-1.5.27-5.43,2.19-5.95,2.86-.79,5.77-.8,9.29-.01Z"/>
      <path class="cls-1" d="M36.4,97.36c1.85.73,2.32,5.36,1.08,6.74-2.4,2.68-9.61,3.21-12.74-.28-1.05-1.17-.81-5.13.79-6.11,3.01-1.85,7.1-1.84,10.86-.35Z"/>
      <path class="cls-1" d="M84.13,97.05c1.91.54,3,4.43,2.18,5.93-2.5,4.58-10.73,3.96-13.32.82-1.09-1.31-.7-5.41,1.18-6.36,2.82-1.41,6.72-1.32,9.96-.4Z"/>
      <path class="cls-1" d="M108.49,97.2c1.87.57,2.73,4.69,1.9,6.01-2.69,4.26-10.7,3.6-13.04.92-1.42-1.63-.86-6.27,1.4-7,2.89-.93,6.29-.98,9.74.07Z"/>
      <path class="cls-1" d="M36.7,78.18c1.67.71,1.93,5.61.65,6.76-2.48,2.24-10.15,3.12-12.93-1.01-.97-1.43.06-5.31,2.06-6.1,3.09-1.22,6.69-1.16,10.22.34Z"/>
      <path class="cls-1" d="M60.53,78.19c2.07,1.12,2.34,5.1,1.21,6.31-2.95,3.13-10.64,3.32-13.17-.54-.93-1.41.04-5.29,1.9-6.07,2.93-1.24,6.98-1.36,10.06.31Z"/>
      <path class="cls-1" d="M84.1,77.81c2.04.67,3.04,4.75,2.1,6.14-2.63,3.9-10.29,3.64-13.16.52-1.13-1.23-.79-4.97.99-6.17,2.51-1.69,6.49-1.67,10.06-.49Z"/>
      <path class="cls-1" d="M108.33,77.86c1.95.77,3,4.62,2.05,6.05-2.56,3.86-9.11,3.32-12.46,1.51-1.47-.79-1.81-5.61-.38-6.7,2.89-2.2,7.29-2.25,10.79-.86Z"/>
      <path class="cls-1" d="M60.12,58.67c2.24.86,2.85,4.84,1.79,6.27-2.69,3.63-10.61,3.38-13.13.07-1.07-1.4-.34-5.57,1.62-6.34,2.79-1.09,6.47-1.23,9.72,0Z"/>
      <path class="cls-1" d="M84.24,58.59c1.69.51,2.77,4.38,2.08,5.79-2.01,4.14-9.96,3.93-13.05,1.16-1.3-1.17-1.22-5.02.68-6.4,2.43-1.77,6.49-1.69,10.29-.55Z"/>
      <path class="cls-1" d="M36.2,58.65c2.02.67,2.56,5.24,1.41,6.67-2.25,2.8-10.04,3.27-12.97-.33-1.12-1.37-.43-5.43,1.64-6.28,2.87-1.17,6.41-1.22,9.92-.06Z"/>
      <path class="cls-1" d="M108.32,58.61c1.84.56,2.95,4.36,2.18,5.73-2.58,4.57-11.19,3.72-13.33.97-1.09-1.39-.56-5.82,1.18-6.55,2.93-1.22,6.28-1.29,9.97-.16Z"/>
    </g>
  </g>
</svg>