<?xml version="1.0" encoding="UTF-8"?>
<svg id="Capa_2" data-name="Capa 2" xmlns="http://www.w3.org/2000/svg" xmlns:xlink="http://www.w3.org/1999/xlink" viewBox="0 0 2109.57 347.39">
  <defs>
    <style>
      .cls-1 {
        fill: url(#Degradado_sin_nombre_4);
      }

      .cls-2 {
        opacity: .7;
      }
    </style>
    <linearGradient id="Degradado_sin_nombre_4" data-name="Degradado sin nombre 4" x1="25.26" y1="173.69" x2="2084.26" y2="173.69" gradientUnits="userSpaceOnUse">
      <stop offset="0" stop-color="#fcd800"/>
      <stop offset=".99" stop-color="#f8b307"/>
      <stop offset="1" stop-color="#f8b307"/>
    </linearGradient>
  </defs>
  <g id="Layer_1" data-name="Layer 1">
    <g class="cls-2">
      <path class="cls-1" d="M51.21,256.93c9.3-11.94,19.38-23.24,30.23-33.78,5.55-5.39,11.29-10.59,17.2-15.58,2.95-2.49,5.96-4.91,8.97-7.33,3.99-3.2-6.49,4.91-.34.27,1.35-1.02,2.7-2.03,4.06-3.02,24.46-17.94,51.15-32.62,79.06-44.44l-7.17,3.02c40.2-16.86,82.66-27.66,125.82-33.49l-7.98,1.07c53.81-7.11,108.08-6.19,161.83.93l-7.98-1.07c119.8,16.15,233.43,59.22,346.65,99.62,115.02,41.04,231.83,77.06,352.08,99.26,120.89,22.32,244.9,31.99,367.47,19.48,106.02-10.82,209.41-37.62,306.4-81.99,93.4-42.73,180.02-103.23,248.82-179.8,8.42-9.37,16.56-18.99,24.43-28.83,5.15-6.44,8.79-12.63,8.79-21.21,0-7.36-3.27-16.15-8.79-21.21s-13.22-9.14-21.21-8.79c-7.43.33-16.35,2.71-21.21,8.79-29.42,36.78-62.79,70.29-99.23,100.12-4.44,3.64-8.94,7.2-13.46,10.75s5.86-4.46,1.11-.86c-1.04.79-2.08,1.58-3.12,2.37-2.71,2.05-5.43,4.08-8.16,6.09-9.26,6.81-18.69,13.39-28.26,19.76-19.63,13.06-39.87,25.19-60.6,36.41-23.6,12.77-47.84,24.34-72.55,34.79l7.17-3.02c-59,24.84-120.63,43.21-183.48,55.29-17.65,3.39-35.39,6.28-53.2,8.7l7.98-1.07c-80.93,10.86-163.07,11.69-244.39,5.04-23.91-1.96-47.77-4.57-71.55-7.75l7.98,1.07c-92.11-12.41-182.88-33.43-271.94-59.86-88.16-26.16-173.96-59-260.87-88.89-87.62-30.13-176.77-55.78-269.18-65.61-74.83-7.96-152.17-2.69-224.61,18.2-72.14,20.81-141.08,58.21-192.16,113.96-5.95,6.5-11.62,13.25-17.04,20.2-5.11,6.56-8.79,12.52-8.79,21.21,0,7.36,3.27,16.15,8.79,21.21s13.22,9.14,21.21,8.79c7.37-.33,16.45-2.68,21.21-8.79h0Z"/>
    </g>
  </g>
</svg>