<?xml version="1.0" encoding="UTF-8"?>
<svg id="Capa_2" data-name="Capa 2" xmlns="http://www.w3.org/2000/svg" xmlns:xlink="http://www.w3.org/1999/xlink" viewBox="0 0 2809.53 140">
  <defs>
    <style>
      .cls-1 {
        fill: none;
        stroke: url(#Degradado_sin_nombre_4);
        stroke-miterlimit: 10;
        stroke-width: 40px;
      }
    </style>
    <linearGradient id="Degradado_sin_nombre_4" data-name="Degradado sin nombre 4" x1="0" y1="70" x2="2809.53" y2="70" gradientUnits="userSpaceOnUse">
      <stop offset="0" stop-color="#fcd800"/>
      <stop offset=".99" stop-color="#f8b307"/>
      <stop offset="1" stop-color="#f8b307"/>
    </linearGradient>
  </defs>
  <g id="Layer_1" data-name="Layer 1">
    <path class="cls-1" d="M0,20c63.85,0,63.85,100,127.7,100S191.55,20,255.4,20s63.85,100,127.7,100,63.85-100,127.7-100,63.85,100,127.7,100,63.85-100,127.7-100,63.85,100,127.71,100,63.85-100,127.7-100,63.85,100,127.7,100,63.85-100,127.71-100,63.85,100,127.71,100,63.85-100,127.71-100,63.85,100,127.71,100,63.85-100,127.71-100,63.85,100,127.7,100,63.85-100,127.71-100,63.85,100,127.71,100,63.85-100,127.71-100,63.85,100,127.71,100,63.85-100,127.71-100,63.86,100,127.71,100,63.86-100,127.71-100"/>
  </g>
</svg>