<?xml version="1.0" encoding="UTF-8"?>
<svg id="Capa_2" data-name="Capa 2" xmlns="http://www.w3.org/2000/svg" viewBox="0 0 262.19 82.9">
  <defs>
    <style>
      .cls-1 {
        fill: #fab600;
      }
    </style>
  </defs>
  <g id="Layer_1" data-name="Layer 1">
    <g>
      <g>
        <path class="cls-1" d="M35.83,45.08c5.85-16.76,17.38-30.86,32.29-39.98C61.19,1.87,52.99,0,44.19,0,22.26,0,3.99,11.6,0,26.96c14.26,1.19,26.94,7.96,35.83,18.12Z"/>
        <path class="cls-1" d="M83.23,16.67c-21.1,5.92-37.94,22.05-44.85,42.72C29.62,47.97,15.82,40.61.3,40.64h0c1.98,6.48,6.51,12.24,12.78,16.68h0c13.3,9.68,31.41,9.58,41.39,16.12.72.47,1.38,1,1.99,1.57,1.83,1.67,3.13,3.86,3.74,6.27.38,1.51,2.21,2.1,3.46,1.17,7.61-5.63,14.25-11.56,19.75-20.34,11-17.54,9.82-33.17-.18-45.45Z"/>
      </g>
      <g>
        <g>
          <g>
            <path class="cls-1" d="M107.78,6.51c.3-.03.58-.06.83-.09.26-.02.52-.03.78-.03.22,0,.46.01.71.03.26.02.55.05.89.09l3.8,12.3c-.65.1-1.23.15-1.72.15-.23,0-.46-.01-.69-.03s-.48-.06-.74-.1l-.65-2.39c-.32.09-.63.16-.92.21-.29.05-.58.07-.87.07-.26,0-.53-.02-.81-.06-.28-.04-.56-.1-.86-.18l-.64,2.36c-.26.05-.5.08-.72.1s-.43.03-.64.03-.45-.01-.71-.04c-.27-.03-.57-.07-.9-.13l3.85-12.29ZM109.31,9.74l-1.15,4.42c.2.06.38.1.55.14.17.03.35.05.53.05.19,0,.39-.01.58-.04.19-.03.39-.07.59-.13l-1.1-4.44Z"/>
            <path class="cls-1" d="M116.67,6.53c.26-.03.67-.08,1.21-.15.54-.06,1.23-.09,2.06-.09.61,0,1.22.06,1.84.17.62.11,1.18.33,1.68.65.5.32.9.76,1.21,1.33.31.57.46,1.32.46,2.24,0,.82-.12,1.49-.37,2.03-.25.54-.57.97-.98,1.29-.41.32-.87.55-1.39.69-.52.14-1.06.21-1.61.21-.22,0-.44,0-.66-.03-.22-.02-.38-.04-.47-.06v4.01c-.3.06-.57.1-.81.12s-.46.03-.67.03c-.4,0-.9-.05-1.5-.15V6.53ZM119.65,12.34c.06.02.16.04.29.05.14.01.28.02.43.02.49,0,.89-.14,1.2-.43s.46-.72.46-1.31c0-.34-.05-.63-.15-.87-.1-.23-.23-.42-.4-.57-.17-.14-.37-.24-.6-.3-.23-.06-.47-.09-.72-.09h-.24c-.09,0-.18,0-.28.02v3.48Z"/>
            <path class="cls-1" d="M134.26,13.64c.35-.35.65-.73.89-1.12.01-.02.02-.03.03-.05,0,0,.01-.01.02-.02h0c.74-1.24.83-2.96.14-4.13-1.65-2.59-5.2-2.06-7.85-1.79v12.29c1.24.2,1.76.21,3.03,0v-3.59c.46.03.91-.02,1.35-.14l1.62,3.74c1.08.2,2.3.17,3.39,0l-2.62-5.17ZM130.52,8.97c2.06-.41,2.45,1.47,1.79,2.89-.51.88-1.3.98-1.79.99v-3.89Z"/>
            <path class="cls-1" d="M138.84,6.49h7.26c.05.25.08.49.1.71s.03.42.03.62c0,.38-.05.83-.14,1.36h-4.22v1.89h3.32c.1.51.16.95.16,1.34s-.05.85-.16,1.34h-3.32v2.44h4.32c.1.48.15.92.15,1.31,0,.42-.05.88-.15,1.36h-7.37V6.49Z"/>
            <path class="cls-1" d="M148.66,6.53c.25-.05.48-.08.69-.1s.41-.03.6-.03c.21,0,.42.01.65.04.22.03.42.06.58.09l3.99,6.75v-6.75c.3-.05.57-.08.81-.1.24-.02.46-.03.65-.03s.4.01.62.03c.22.02.45.06.69.1l-.02,12.29c-.11.03-.28.07-.5.1-.22.03-.45.05-.71.05-.29,0-.55-.02-.77-.06-.23-.04-.4-.07-.5-.09l-4.01-6.71v6.71c-.51.1-.96.15-1.38.15s-.88-.05-1.39-.15V6.53Z"/>
            <path class="cls-1" d="M160.75,6.53c.17-.02.39-.05.65-.08s.55-.05.86-.08.63-.04.96-.06c.33-.02.65-.03.96-.03,2.17,0,3.81.54,4.94,1.63,1.12,1.08,1.69,2.7,1.69,4.84s-.57,3.78-1.72,4.79c-1.15,1.02-2.85,1.52-5.09,1.52-.57,0-1.13-.03-1.66-.08-.53-.05-1.06-.11-1.57-.18V6.53ZM163.79,16.37c.08.01.17.02.28.02h.33c.45,0,.87-.05,1.27-.16s.74-.3,1.02-.58c.29-.28.51-.65.68-1.12.17-.47.25-1.07.25-1.81s-.09-1.33-.26-1.81c-.17-.48-.4-.86-.68-1.14-.28-.28-.61-.48-.99-.6s-.77-.18-1.19-.18c-.23,0-.4,0-.5,0-.1,0-.17,0-.21,0v7.36Z"/>
            <path class="cls-1" d="M173.28,6.53c.31-.05.59-.08.84-.1s.48-.03.67-.03c.21,0,.44.01.7.03.26.02.54.06.83.1v12.29c-.61.1-1.11.15-1.51.15-.42,0-.94-.05-1.53-.15V6.53Z"/>
            <path class="cls-1" d="M179.15,6.49h7.26c.05.25.08.49.1.71s.03.42.03.62c0,.38-.05.83-.14,1.36h-4.22v1.89h3.32c.1.51.16.95.16,1.34s-.05.85-.16,1.34h-3.32v2.44h4.32c.1.48.15.92.15,1.31,0,.42-.05.88-.15,1.36h-7.37V6.49Z"/>
            <path class="cls-1" d="M188.96,6.53c.25-.05.48-.08.69-.1s.41-.03.6-.03c.21,0,.42.01.65.04.22.03.42.06.58.09l3.99,6.75v-6.75c.3-.05.57-.08.81-.1.24-.02.46-.03.65-.03s.4.01.62.03c.22.02.45.06.69.1l-.02,12.29c-.11.03-.28.07-.5.1-.22.03-.45.05-.71.05-.29,0-.55-.02-.77-.06-.23-.04-.4-.07-.5-.09l-4.01-6.71v6.71c-.51.1-.96.15-1.38.15s-.88-.05-1.39-.15V6.53Z"/>
            <path class="cls-1" d="M201.05,6.53c.17-.02.39-.05.65-.08s.55-.05.86-.08.63-.04.96-.06c.33-.02.65-.03.96-.03,2.17,0,3.81.54,4.94,1.63,1.12,1.08,1.69,2.7,1.69,4.84s-.57,3.78-1.72,4.79c-1.15,1.02-2.85,1.52-5.09,1.52-.57,0-1.13-.03-1.66-.08-.53-.05-1.06-.11-1.57-.18V6.53ZM204.1,16.37c.08.01.17.02.28.02h.33c.45,0,.87-.05,1.27-.16s.74-.3,1.02-.58.51-.65.68-1.12c.17-.47.25-1.07.25-1.81s-.09-1.33-.26-1.81-.4-.86-.68-1.14-.61-.48-.99-.6-.77-.18-1.19-.18c-.23,0-.4,0-.5,0-.1,0-.17,0-.21,0v7.36Z"/>
            <path class="cls-1" d="M218.69,19.07c-.94,0-1.75-.16-2.43-.47-.68-.32-1.24-.76-1.69-1.33-.44-.57-.77-1.24-.98-2.01-.21-.77-.32-1.62-.32-2.54s.11-1.77.32-2.56c.21-.79.54-1.47.98-2.04.44-.57,1-1.02,1.69-1.35.68-.33,1.49-.49,2.43-.49s1.75.16,2.43.49c.68.33,1.24.78,1.68,1.35.44.57.77,1.25.98,2.04.21.79.32,1.64.32,2.56s-.11,1.76-.32,2.54c-.21.77-.54,1.45-.98,2.01-.44.57-1,1.01-1.68,1.33-.68.32-1.49.47-2.43.47ZM218.69,16.44c1.47,0,2.2-1.24,2.2-3.72s-.73-3.75-2.19-3.75-2.24,1.25-2.24,3.75c0,1.25.18,2.18.54,2.8.36.61.92.92,1.68.92Z"/>
          </g>
          <g>
            <path class="cls-1" d="M108.34,32.02h-3.81c-.21-.98-.31-1.9-.31-2.76,0-.81.11-1.71.31-2.69h9.99v18.16c0,1.33-.21,2.46-.63,3.4-.42.94-.99,1.71-1.71,2.29-.72.58-1.57,1.01-2.53,1.27-.97.27-2.01.4-3.13.4-.68,0-1.35-.05-2.03-.16-.68-.1-1.28-.24-1.82-.4-.02-.19-.04-.37-.05-.56-.01-.19-.02-.38-.02-.59,0-1.35.23-2.69.7-4.02.21.05.52.1.94.17.42.07.86.11,1.33.11.28,0,.58-.02.91-.05.33-.04.62-.14.89-.31.27-.17.49-.44.68-.79.19-.35.28-.84.28-1.47v-12.01Z"/>
            <path class="cls-1" d="M118.39,26.64c.67-.09,1.26-.16,1.75-.19.49-.04.95-.05,1.4-.05.4,0,.83.02,1.31.05.48.03,1.05.1,1.73.19v13.55c0,1.16.05,2.15.14,2.97.09.81.26,1.48.51,1.99.25.51.59.88,1.03,1.1.44.22,1.02.33,1.75.33s1.31-.11,1.76-.33c.45-.22.8-.59,1.05-1.1.24-.51.41-1.18.49-1.99s.12-1.8.12-2.97v-13.55c.7-.09,1.29-.16,1.76-.19.48-.04.91-.05,1.31-.05.42,0,.87.02,1.36.05.49.03,1.07.1,1.75.19v14.28c0,1.72-.15,3.27-.44,4.64-.29,1.37-.8,2.54-1.52,3.51-.72.97-1.71,1.71-2.95,2.22-1.25.51-2.81.77-4.7.77s-3.45-.26-4.7-.77c-1.25-.51-2.23-1.25-2.95-2.22-.72-.97-1.23-2.14-1.52-3.51-.29-1.37-.44-2.92-.44-4.64v-14.28Z"/>
            <path class="cls-1" d="M141.65,26.64c.51-.09.98-.16,1.4-.21.42-.05.83-.07,1.22-.07.42,0,.86.03,1.31.09s.84.12,1.17.19l8.1,13.69v-13.69c.6-.09,1.15-.16,1.64-.21s.93-.07,1.33-.07.81.02,1.26.07.91.12,1.4.21l-.04,24.93c-.23.07-.57.14-1.01.21s-.92.11-1.43.11c-.58,0-1.11-.04-1.57-.12-.47-.08-.8-.15-1.01-.19l-8.14-13.62v13.62c-1.02.21-1.96.31-2.79.31s-1.78-.11-2.83-.31v-24.93Z"/>
            <path class="cls-1" d="M169.23,32.02h-5.83c-.21-1-.31-1.92-.31-2.76,0-.77.1-1.66.31-2.69h17.84c.09.51.16.99.21,1.43.05.44.07.86.07,1.26,0,.77-.09,1.69-.28,2.76h-5.83v19.55c-1.23.21-2.26.31-3.07.31-.86,0-1.9-.11-3.11-.31v-19.55Z"/>
            <path class="cls-1" d="M193.43,52.1c-1.91,0-3.56-.32-4.94-.96-1.39-.64-2.53-1.54-3.42-2.69-.9-1.15-1.56-2.51-1.99-4.09-.43-1.57-.65-3.29-.65-5.15s.22-3.59.65-5.19c.43-1.59,1.09-2.97,1.99-4.14.9-1.16,2.04-2.08,3.42-2.74,1.39-.66,3.03-1,4.94-1s3.55.33,4.92,1c1.37.66,2.51,1.58,3.4,2.74.9,1.16,1.56,2.54,1.99,4.14.43,1.59.65,3.32.65,5.19s-.22,3.58-.65,5.15c-.43,1.57-1.09,2.93-1.99,4.09-.9,1.15-2.03,2.05-3.4,2.69-1.37.64-3.01.96-4.92.96ZM193.43,46.76c2.98,0,4.47-2.51,4.47-7.54s-1.48-7.61-4.43-7.61-4.54,2.54-4.54,7.61c0,2.54.37,4.43,1.1,5.67.73,1.25,1.87,1.87,3.4,1.87Z"/>
            <path class="cls-1" d="M213.12,41.03c-.84-.3-1.6-.66-2.29-1.08-.69-.42-1.27-.91-1.76-1.48-.49-.57-.87-1.23-1.14-1.97-.27-.74-.4-1.62-.4-2.62,0-1.23.21-2.33.63-3.28.42-.95,1.01-1.76,1.76-2.43.76-.66,1.67-1.16,2.74-1.5,1.07-.34,2.27-.51,3.6-.51,1.19,0,2.33.12,3.44.35,1.11.23,2.29.57,3.54,1.01-.09.74-.26,1.57-.51,2.46-.24.9-.55,1.74-.93,2.53-.61-.26-1.32-.52-2.13-.8-.82-.28-1.83-.42-3.04-.42-.37,0-.73.03-1.07.1-.34.07-.64.18-.91.33-.27.15-.48.36-.65.63-.16.27-.24.6-.24,1,0,.68.22,1.18.66,1.5.44.33.97.61,1.57.84l1.68.66c.98.4,1.86.8,2.64,1.2.78.41,1.45.9,2.01,1.47.56.57.99,1.26,1.29,2.06.3.8.45,1.78.45,2.92,0,1.23-.22,2.35-.65,3.33-.43.99-1.07,1.84-1.9,2.55s-1.87,1.26-3.09,1.64c-1.22.38-2.63.58-4.21.58-1.44,0-2.72-.12-3.82-.35-1.11-.23-2.3-.59-3.58-1.08.09-.81.26-1.68.49-2.6.23-.92.51-1.86.84-2.81,2.14.93,4,1.4,5.59,1.4,1.19,0,2.11-.18,2.78-.54.66-.36,1-.98,1-1.87,0-.37-.07-.69-.21-.96-.14-.27-.33-.49-.56-.68-.23-.19-.49-.34-.79-.47-.29-.13-.59-.25-.89-.37l-1.96-.73Z"/>
          </g>
        </g>
        <g>
          <path class="cls-1" d="M104.76,72.82c.29.45.81.68,1.56.68.49,0,1-.06,1.52-.18.16-.05.29-.07.38-.07.11,0,.18.05.22.16.12.32.17.57.17.76,0,.14-.09.24-.28.31-.65.23-1.46.35-2.43.35-1.07,0-1.87-.31-2.41-.92-.54-.61-.81-1.67-.81-3.18s.26-2.66.79-3.34,1.44-1.01,2.74-1.01c.86,0,1.51.06,1.94.17.19.05.29.15.29.3,0,.28-.06.57-.17.85-.03.1-.11.15-.23.15-.08,0-.21-.02-.39-.06-.33-.06-.75-.09-1.26-.09-.79,0-1.33.21-1.63.64-.29.43-.44,1.16-.44,2.21s.15,1.81.44,2.26Z"/>
          <path class="cls-1" d="M111.49,73.28c.23.18.59.27,1.07.27s.94-.04,1.29-.13c.17-.04.28-.06.35-.06.13,0,.22.06.26.18.08.24.13.47.13.69,0,.14-.06.23-.18.29-.47.2-1.15.3-2.03.3-1.03,0-1.76-.24-2.18-.71-.43-.48-.64-1.25-.64-2.31s.23-1.87.68-2.35c.45-.48,1.15-.73,2.1-.73.44,0,.81.05,1.11.16.3.1.53.23.7.39.16.15.29.37.38.66.09.29.14.56.17.82.02.26.04.61.04,1.04,0,.2-.04.33-.13.38-.06.05-.15.07-.27.07h-3.19c0,.51.13.86.36,1.04ZM113.25,71.15s.01-.11.01-.22c0-.36-.07-.63-.21-.79-.14-.17-.4-.25-.78-.25s-.67.1-.85.31c-.17.21-.26.53-.27.96h2.1Z"/>
          <path class="cls-1" d="M117.33,74.69h-.96c-.19,0-.29-.11-.29-.32v-4.43c0-.37.14-.61.42-.71.34-.15.8-.26,1.38-.35.57-.09,1.1-.13,1.6-.13.52,0,.91.06,1.17.18.26.12.43.3.52.55.08.22.12.6.12,1.13v3.77c0,.22-.1.32-.29.32h-.97c-.19,0-.29-.11-.29-.32v-3.42c0-.26-.02-.45-.06-.56-.06-.22-.31-.33-.75-.33s-.77.05-1,.15c-.11.04-.18.08-.22.13-.05.05-.08.15-.08.29v3.76c0,.22-.1.32-.3.32Z"/>
          <path class="cls-1" d="M125.1,73.21c.12.15.46.25,1.01.29.18.02.28.12.28.31,0,.21,0,.43-.02.66-.02.2-.14.3-.36.3-.64,0-1.13-.05-1.47-.14-.34-.09-.61-.26-.8-.5-.16-.19-.27-.43-.32-.7-.05-.28-.08-.66-.08-1.16v-2.11h-.6c-.2,0-.3-.1-.3-.3v-.65c0-.22.11-.32.32-.32h.61c0-.29.02-.69.05-1.2.02-.24.12-.36.31-.36h.88c.18,0,.28.12.28.37v1.19h1c.24,0,.36.1.36.31v.65c0,.21-.11.31-.33.31h-1.03v2.16c0,.44.07.74.21.9Z"/>
          <path class="cls-1" d="M128.74,74.69h-.96c-.19,0-.29-.11-.29-.32v-4.36c0-.19.03-.34.08-.44.05-.1.14-.2.27-.29.2-.13.53-.25.99-.36.46-.11.89-.17,1.3-.17.38,0,.63.02.77.07.14.05.21.15.21.3,0,.34-.02.6-.07.78-.03.13-.13.2-.29.2-.05,0-.17,0-.33-.01s-.28-.01-.35-.01c-.35,0-.62.05-.82.15-.08.05-.14.1-.16.15-.03.05-.05.15-.05.3v3.7c0,.22-.1.32-.3.32Z"/>
          <path class="cls-1" d="M136.77,74.17c-.43.44-1.14.66-2.13.66s-1.65-.22-2.07-.65c-.42-.43-.63-1.23-.63-2.41,0-.61.07-1.12.2-1.53s.33-.72.6-.94c.26-.22.55-.37.86-.45.31-.08.69-.13,1.12-.13.49,0,.89.04,1.19.11s.58.22.82.43c.25.21.42.52.52.92.1.4.16.92.16,1.56,0,1.18-.21,1.99-.64,2.43ZM135.63,70.38c-.16-.23-.47-.35-.94-.35-.43,0-.74.12-.92.36-.18.24-.28.7-.28,1.37,0,.72.08,1.2.25,1.44.17.23.47.35.92.35s.77-.11.95-.34c.18-.23.26-.7.26-1.41s-.08-1.19-.24-1.42Z"/>
          <path class="cls-1" d="M142.89,74.69h-.92c-.2,0-.3-.12-.3-.35v-6.77c0-.37.08-.64.25-.82.17-.18.44-.27.81-.27h.44c.3,0,.51.06.64.17.13.12.26.32.4.6,1.31,2.67,2.16,4.49,2.55,5.44-.02-.7-.03-2.62-.03-5.75,0-.28.11-.43.35-.43h.86c.21,0,.31.13.31.39v6.94c0,.35-.08.58-.24.71-.16.13-.38.19-.66.19h-.36c-.32,0-.56-.06-.71-.18s-.31-.36-.48-.7c-1.38-2.82-2.25-4.66-2.6-5.51.01,1.06.02,3.05.02,5.98,0,.23-.11.35-.32.35Z"/>
          <path class="cls-1" d="M151.7,73.28c.23.18.59.27,1.07.27s.94-.04,1.29-.13c.17-.04.28-.06.35-.06.13,0,.22.06.26.18.08.24.13.47.13.69,0,.14-.06.23-.18.29-.47.2-1.15.3-2.03.3-1.03,0-1.76-.24-2.18-.71-.43-.48-.64-1.25-.64-2.31s.23-1.87.68-2.35c.45-.48,1.15-.73,2.1-.73.44,0,.81.05,1.11.16.3.1.53.23.7.39.16.15.29.37.38.66.09.29.14.56.17.82.02.26.04.61.04,1.04,0,.2-.04.33-.13.38-.06.05-.15.07-.27.07h-3.19c0,.51.13.86.36,1.04ZM153.47,71.15s.01-.11.01-.22c0-.36-.07-.63-.21-.79-.14-.17-.4-.25-.78-.25s-.67.1-.85.31c-.17.21-.26.53-.27.96h2.1Z"/>
          <path class="cls-1" d="M156.3,69.2c0-.22.1-.32.29-.32h.97c.19,0,.29.11.29.32v3.32c0,.33.03.55.08.67.08.22.36.33.82.33.41,0,.71-.03.91-.09.1-.03.17-.07.22-.12.05-.05.08-.16.08-.31v-3.8c0-.22.1-.32.3-.32h.96c.19,0,.29.11.29.32v4.53c0,.37-.14.61-.42.74-.56.24-1.42.36-2.58.36s-1.84-.26-2.05-.78c-.1-.25-.15-.69-.15-1.31v-3.53Z"/>
          <path class="cls-1" d="M164.38,74.69h-.96c-.19,0-.29-.11-.29-.32v-4.36c0-.19.03-.34.08-.44.05-.1.14-.2.27-.29.2-.13.53-.25.99-.36.46-.11.89-.17,1.3-.17.38,0,.63.02.77.07.14.05.21.15.21.3,0,.34-.02.6-.07.78-.03.13-.13.2-.29.2-.05,0-.17,0-.33-.01s-.28-.01-.35-.01c-.35,0-.62.05-.82.15-.08.05-.14.1-.16.15-.03.05-.05.15-.05.3v3.7c0,.22-.1.32-.3.32Z"/>
          <path class="cls-1" d="M172.41,74.17c-.43.44-1.14.66-2.13.66s-1.65-.22-2.07-.65c-.42-.43-.63-1.23-.63-2.41,0-.61.07-1.12.2-1.53s.33-.72.6-.94c.26-.22.55-.37.86-.45.31-.08.69-.13,1.12-.13.49,0,.89.04,1.19.11s.58.22.82.43c.25.21.42.52.52.92.1.4.16.92.16,1.56,0,1.18-.21,1.99-.64,2.43ZM171.27,70.38c-.16-.23-.47-.35-.94-.35-.43,0-.74.12-.92.36-.18.24-.28.7-.28,1.37,0,.72.08,1.2.25,1.44.17.23.47.35.92.35s.77-.11.95-.34c.18-.23.26-.7.26-1.41s-.08-1.19-.24-1.42Z"/>
          <path class="cls-1" d="M175.66,77.37h-.89c-.11,0-.18-.02-.23-.07-.05-.05-.07-.14-.07-.28v-7.11c0-.21.02-.36.06-.45.05-.13.18-.25.4-.35.24-.1.59-.19,1.07-.27.47-.08.92-.12,1.33-.12.91,0,1.55.21,1.94.63.39.42.58,1.19.58,2.3,0,.84-.11,1.49-.32,1.95-.22.46-.52.78-.91.95-.39.17-.93.25-1.6.25-.43,0-.76-.05-1-.16v2.36c0,.23-.12.35-.36.35ZM176.17,73.42c.15.07.38.1.69.1.58,0,.96-.13,1.15-.38.19-.25.28-.75.28-1.49,0-.61-.08-1.04-.24-1.29-.16-.24-.45-.36-.88-.36s-.74.06-.97.17c-.08.04-.14.09-.16.15-.02.05-.03.14-.03.28v2.46c0,.19.05.31.16.36Z"/>
          <path class="cls-1" d="M182.48,72.3c-.5-.13-.87-.33-1.12-.59-.25-.26-.37-.65-.37-1.16,0-1.21.78-1.81,2.34-1.81.74,0,1.3.07,1.69.21.15.05.23.15.23.3,0,.1-.05.35-.16.75-.02.13-.1.2-.23.2-.02,0-.13-.02-.31-.05-.4-.09-.83-.14-1.28-.14-.3,0-.5.04-.61.13-.1.09-.16.21-.16.37,0,.13.04.23.12.3.08.07.26.15.55.23l.78.22c.57.16.96.36,1.18.61.22.24.32.62.32,1.14,0,1.21-.79,1.82-2.37,1.82-.91,0-1.59-.1-2.04-.29-.14-.05-.21-.15-.21-.3,0-.08.06-.31.18-.71.05-.16.15-.24.29-.24.05,0,.16.03.35.08.42.12.92.18,1.5.18.55,0,.82-.18.82-.53,0-.12-.04-.22-.12-.29-.08-.07-.26-.14-.54-.21l-.84-.22Z"/>
          <path class="cls-1" d="M188.1,67.75c-.14.13-.35.2-.63.2-.54,0-.82-.28-.82-.85s.27-.86.82-.86c.28,0,.49.06.63.19.14.13.21.35.21.66s-.07.53-.21.66ZM187.95,74.69h-.96c-.19,0-.29-.11-.29-.32v-5.15c0-.22.1-.33.3-.33h.96c.19,0,.29.11.29.32v5.16c0,.22-.1.32-.3.32Z"/>
          <path class="cls-1" d="M191.46,73.15c.18.27.51.4.99.4.35,0,.66-.03.96-.08.15-.04.27-.06.36-.06.12,0,.2.06.24.18.08.27.13.5.13.69,0,.15-.07.25-.2.3-.43.16-.99.24-1.67.24-.89,0-1.55-.22-1.99-.66-.43-.44-.65-1.2-.65-2.29s.22-1.9.65-2.4c.43-.5,1.17-.75,2.2-.75.53,0,.99.05,1.37.16.14.05.21.13.21.27,0,.22-.04.49-.13.8-.04.13-.12.2-.23.2-.04,0-.11,0-.2-.02-.1-.02-.15-.02-.17-.02-.24-.05-.51-.07-.81-.07-.52,0-.87.14-1.05.41-.18.27-.27.72-.27,1.34s.09,1.1.27,1.37Z"/>
          <path class="cls-1" d="M199.91,74.17c-.43.44-1.14.66-2.13.66s-1.65-.22-2.07-.65c-.42-.43-.63-1.23-.63-2.41,0-.61.07-1.12.2-1.53s.33-.72.6-.94c.26-.22.55-.37.86-.45.31-.08.69-.13,1.12-.13.49,0,.89.04,1.19.11s.58.22.82.43c.25.21.42.52.52.92.1.4.16.92.16,1.56,0,1.18-.22,1.99-.65,2.43ZM198.78,70.38c-.16-.23-.47-.35-.94-.35-.43,0-.74.12-.92.36-.18.24-.28.7-.28,1.37,0,.72.08,1.2.25,1.44.17.23.47.35.92.35s.77-.11.95-.34c.18-.23.26-.7.26-1.41s-.08-1.19-.24-1.42Z"/>
          <path class="cls-1" d="M203.16,77.37h-.89c-.11,0-.18-.02-.23-.07-.05-.05-.07-.14-.07-.28v-7.11c0-.21.02-.36.06-.45.05-.13.18-.25.4-.35.24-.1.59-.19,1.07-.27.47-.08.92-.12,1.33-.12.91,0,1.55.21,1.94.63.39.42.58,1.19.58,2.3,0,.84-.11,1.49-.32,1.95-.22.46-.52.78-.91.95-.39.17-.93.25-1.6.25-.43,0-.76-.05-1-.16v2.36c0,.23-.12.35-.36.35ZM203.68,73.42c.15.07.38.1.69.1.58,0,.96-.13,1.15-.38.19-.25.28-.75.28-1.49,0-.61-.08-1.04-.24-1.29-.16-.24-.45-.36-.88-.36s-.74.06-.97.17c-.08.04-.14.09-.16.15-.02.05-.03.14-.03.28v2.46c0,.19.05.31.16.36Z"/>
          <path class="cls-1" d="M210.46,73.28c.23.18.59.27,1.07.27s.94-.04,1.29-.13c.17-.04.28-.06.35-.06.13,0,.22.06.26.18.08.24.13.47.13.69,0,.14-.06.23-.18.29-.47.2-1.15.3-2.03.3-1.03,0-1.76-.24-2.18-.71-.43-.48-.64-1.25-.64-2.31s.23-1.87.68-2.35c.45-.48,1.15-.73,2.1-.73.44,0,.81.05,1.11.16.3.1.53.23.7.39.16.15.29.37.38.66.09.29.14.56.17.82.02.26.04.61.04,1.04,0,.2-.04.33-.13.38-.06.05-.15.07-.27.07h-3.19c0,.51.13.86.36,1.04ZM212.22,71.15s.01-.11.01-.22c0-.36-.07-.63-.21-.79-.14-.17-.4-.25-.78-.25s-.67.1-.85.31c-.17.21-.26.53-.27.96h2.1Z"/>
          <path class="cls-1" d="M220.17,74.12c-.06.14-.2.25-.42.35-.23.1-.57.18-1.03.25-.45.07-.89.1-1.3.1-.93,0-1.6-.21-1.99-.63s-.6-1.19-.6-2.3c0-1.21.22-2.04.67-2.49.45-.45,1.17-.68,2.17-.68.47,0,.81.05,1.01.15v-2.48c0-.23.11-.35.34-.35h.89c.11,0,.18.02.23.07.05.05.07.14.07.28v7.33c0,.19-.02.32-.05.39ZM218.69,70.48c0-.18-.06-.3-.17-.36-.13-.06-.37-.09-.7-.09-.57,0-.95.13-1.13.39-.18.26-.28.76-.28,1.49,0,.61.08,1.03.25,1.28.17.25.46.37.88.37s.75-.05.95-.14c.08-.03.13-.08.17-.16.02-.07.04-.16.04-.28v-2.5Z"/>
          <path class="cls-1" d="M226.44,74.24c-.11.12-.24.21-.4.27-.24.08-.59.16-1.04.23-.46.07-.88.1-1.27.1-.84,0-1.41-.17-1.72-.5-.31-.33-.47-.79-.47-1.38,0-.66.21-1.13.64-1.42.36-.25.98-.37,1.84-.37.41,0,.76.02,1.03.05v-.29c0-.25-.02-.42-.06-.53-.09-.22-.42-.33-.98-.33-.36,0-.74.03-1.15.1-.3.05-.46.07-.5.07-.13,0-.21-.07-.25-.22-.08-.31-.12-.53-.12-.67,0-.18.08-.29.25-.35.56-.18,1.22-.27,1.98-.27.97,0,1.61.16,1.94.47.28.27.41.78.41,1.53v2.95c0,.25-.05.44-.14.55ZM224.21,72.21c-.51,0-.84.06-.99.17-.15.09-.22.27-.22.53,0,.25.06.43.2.56.13.13.36.19.7.19.42,0,.73-.05.93-.14.09-.04.15-.1.17-.18.02-.07.04-.2.04-.39v-.69c-.31-.03-.58-.05-.83-.05Z"/>
          <path class="cls-1" d="M230.51,74.81c-.9,0-1.55-.21-1.96-.63s-.61-1.18-.61-2.29c0-1.21.22-2.03.65-2.48.43-.45,1.14-.67,2.13-.67.93,0,1.66.09,2.2.27.25.08.37.27.37.58v4.53c0,.7-.05,1.22-.14,1.56-.15.6-.56,1.03-1.23,1.3s-1.6.4-2.81.4c-.25,0-.38-.1-.41-.31-.03-.23-.05-.42-.05-.58,0-.25.11-.38.34-.39.85-.05,1.44-.12,1.79-.21.35-.1.59-.23.72-.41.13-.18.2-.42.2-.73v-.15c-.23.15-.63.22-1.2.22ZM231.74,70.46c0-.18-.05-.29-.16-.33-.15-.06-.39-.09-.73-.09-.56,0-.93.13-1.1.38-.17.25-.25.74-.25,1.46,0,.61.08,1.03.23,1.28.15.25.44.37.86.37.4,0,.71-.05.95-.15.09-.05.15-.1.17-.16.02-.04.02-.12.02-.23v-2.52Z"/>
          <path class="cls-1" d="M239.52,74.17c-.43.44-1.14.66-2.13.66s-1.65-.22-2.07-.65c-.42-.43-.63-1.23-.63-2.41,0-.61.07-1.12.2-1.53s.33-.72.6-.94c.26-.22.55-.37.86-.45.31-.08.69-.13,1.12-.13.49,0,.89.04,1.19.11s.58.22.82.43c.25.21.42.52.52.92.1.4.16.92.16,1.56,0,1.18-.21,1.99-.64,2.43ZM238.39,70.38c-.16-.23-.47-.35-.94-.35-.43,0-.74.12-.92.36-.18.24-.28.7-.28,1.37,0,.72.08,1.2.25,1.44.17.23.47.35.92.35s.77-.11.95-.34c.18-.23.26-.7.26-1.41s-.08-1.19-.24-1.42ZM237.33,68c-.18,0-.35-.01-.51-.03-.15-.02-.23-.1-.23-.22,0-.09.04-.18.12-.28l1-1.31c.13-.18.3-.27.52-.27.29,0,.55.01.77.03.19.02.29.1.29.22,0,.08-.06.18-.17.31l-1.28,1.34c-.12.14-.28.21-.51.21Z"/>
          <path class="cls-1" d="M243.92,74.81c-.9,0-1.55-.21-1.96-.63s-.61-1.18-.61-2.29c0-1.21.22-2.03.65-2.48.43-.45,1.14-.67,2.13-.67.93,0,1.66.09,2.2.27.25.08.37.27.37.58v4.53c0,.7-.05,1.22-.14,1.56-.15.6-.56,1.03-1.23,1.3s-1.6.4-2.81.4c-.25,0-.38-.1-.41-.31-.03-.23-.05-.42-.05-.58,0-.25.11-.38.35-.39.84-.05,1.44-.12,1.79-.21.35-.1.59-.23.72-.41.13-.18.2-.42.2-.73v-.15c-.23.15-.63.22-1.2.22ZM245.16,70.46c0-.18-.05-.29-.16-.33-.15-.06-.39-.09-.73-.09-.56,0-.93.13-1.1.38-.17.25-.25.74-.25,1.46,0,.61.08,1.03.23,1.28.15.25.44.37.86.37.4,0,.71-.05.95-.15.09-.05.15-.1.17-.16.02-.04.02-.12.02-.23v-2.52Z"/>
          <path class="cls-1" d="M249.74,67.75c-.14.13-.35.2-.63.2-.54,0-.82-.28-.82-.85s.27-.86.82-.86c.28,0,.49.06.63.19.14.13.21.35.21.66s-.07.53-.21.66ZM249.59,74.69h-.96c-.19,0-.29-.11-.29-.32v-5.15c0-.22.1-.33.3-.33h.96c.19,0,.29.11.29.32v5.16c0,.22-.1.32-.3.32Z"/>
          <path class="cls-1" d="M253.09,73.15c.18.27.51.4.99.4.35,0,.66-.03.96-.08.15-.04.27-.06.36-.06.12,0,.2.06.24.18.09.27.13.5.13.69,0,.15-.06.25-.2.3-.43.16-.99.24-1.67.24-.89,0-1.55-.22-1.99-.66-.43-.44-.65-1.2-.65-2.29s.22-1.9.65-2.4c.43-.5,1.17-.75,2.2-.75.53,0,.99.05,1.37.16.14.05.21.13.21.27,0,.22-.04.49-.13.8-.04.13-.12.2-.23.2-.04,0-.11,0-.2-.02-.1-.02-.15-.02-.17-.02-.24-.05-.51-.07-.81-.07-.52,0-.87.14-1.05.41-.18.27-.27.72-.27,1.34s.09,1.1.27,1.37Z"/>
          <path class="cls-1" d="M261.55,74.17c-.43.44-1.14.66-2.13.66s-1.65-.22-2.07-.65c-.42-.43-.63-1.23-.63-2.41,0-.61.07-1.12.2-1.53s.33-.72.6-.94c.26-.22.55-.37.86-.45.31-.08.69-.13,1.12-.13.49,0,.89.04,1.19.11s.58.22.82.43c.25.21.42.52.52.92.1.4.16.92.16,1.56,0,1.18-.21,1.99-.64,2.43ZM260.41,70.38c-.16-.23-.47-.35-.94-.35-.43,0-.74.12-.92.36-.18.24-.28.7-.28,1.37,0,.72.08,1.2.25,1.44.17.23.47.35.92.35s.77-.11.95-.34c.18-.23.26-.7.26-1.41s-.08-1.19-.24-1.42Z"/>
        </g>
      </g>
    </g>
  </g>
</svg>