<?xml version="1.0" encoding="UTF-8"?>
<svg id="Capa_2" data-name="Capa 2" xmlns="http://www.w3.org/2000/svg" viewBox="0 0 210.03 77.7">
  <defs>
    <style>
      .cls-1 {
        fill: #0056a4;
      }

      .cls-2 {
        fill: #fab600;
      }
    </style>
  </defs>
  <g id="Layer_1" data-name="Layer 1">
    <g>
      <g>
        <path class="cls-2" d="M33.59,42.26c5.48-15.71,16.29-28.92,30.27-37.47C57.36,1.76,49.67,0,41.42,0,20.86,0,3.74,10.88,0,25.27c13.37,1.11,25.25,7.46,33.59,16.99Z"/>
        <path class="cls-1" d="M78.01,15.62c-19.78,5.55-35.56,20.67-42.04,40.04C27.76,44.96,14.83,38.06.28,38.09h0c1.86,6.07,6.11,11.48,11.98,15.63h0c12.46,9.07,29.44,8.98,38.8,15.11.67.44,1.29.93,1.87,1.47,1.71,1.57,2.94,3.61,3.51,5.88.36,1.41,2.07,1.97,3.24,1.1,7.13-5.28,13.35-10.83,18.52-19.06,10.31-16.44,9.2-31.09-.17-42.6Z"/>
      </g>
      <g>
        <g>
          <path class="cls-1" d="M101.02,17.59c.28-.03.54-.06.78-.08.24-.02.49-.03.73-.03.2,0,.43.01.67.03.24.02.52.05.83.08l3.56,11.53c-.61.1-1.15.14-1.61.14-.22,0-.43-.01-.65-.03s-.45-.05-.69-.1l-.61-2.24c-.3.09-.59.15-.86.19-.27.04-.55.06-.81.06-.25,0-.5-.02-.76-.06-.26-.04-.53-.09-.81-.17l-.6,2.21c-.25.04-.47.08-.68.1s-.4.03-.6.03-.42-.01-.67-.04c-.25-.03-.54-.07-.85-.12l3.61-11.52ZM102.46,20.62l-1.08,4.15c.18.05.35.1.52.13.16.03.33.05.5.05.18,0,.36-.01.54-.04.18-.03.36-.07.56-.12l-1.03-4.16Z"/>
          <path class="cls-1" d="M109.35,17.61c.25-.03.63-.08,1.14-.14.51-.06,1.15-.09,1.93-.09.57,0,1.15.05,1.73.16.58.11,1.1.31,1.57.6s.85.71,1.14,1.25.44,1.24.44,2.1c0,.76-.12,1.4-.35,1.9-.23.51-.54.91-.92,1.21-.38.3-.82.52-1.31.64-.49.13-.99.19-1.51.19-.2,0-.41,0-.62-.02-.21-.02-.36-.03-.44-.06v3.76c-.28.05-.53.09-.76.11s-.44.03-.63.03c-.38,0-.84-.05-1.4-.14v-11.52ZM112.14,23.06c.05.02.15.04.27.05.13.01.26.02.4.02.46,0,.84-.13,1.13-.4.29-.27.44-.68.44-1.23,0-.32-.05-.59-.14-.81-.09-.22-.22-.4-.38-.53-.16-.13-.35-.23-.56-.28-.22-.05-.44-.08-.68-.08h-.23c-.09,0-.17,0-.26.02v3.26Z"/>
          <path class="cls-1" d="M125.84,24.27c.33-.32.61-.68.83-1.05,0-.02.02-.03.03-.04,0,0,0-.01.01-.02h0c.69-1.16.78-2.77.13-3.87-1.55-2.43-4.88-1.93-7.36-1.68v11.52c1.17.19,1.65.19,2.84,0v-3.37c.43.03.85-.02,1.27-.13l1.52,3.5c1.02.18,2.16.16,3.18,0l-2.46-4.85ZM122.33,19.9c1.93-.39,2.3,1.37,1.68,2.71-.48.83-1.22.92-1.68.93v-3.64Z"/>
          <path class="cls-1" d="M130.13,17.57h6.81c.04.24.08.46.1.66s.03.4.03.58c0,.35-.04.78-.13,1.27h-3.95v1.77h3.11c.1.47.15.89.15,1.26s-.05.8-.15,1.26h-3.11v2.29h4.05c.1.45.14.86.14,1.23,0,.4-.05.82-.14,1.27h-6.9v-11.6Z"/>
          <path class="cls-1" d="M139.33,17.61c.24-.04.45-.08.65-.1s.38-.03.56-.03c.19,0,.4.01.61.04.21.03.39.06.54.09l3.74,6.32v-6.32c.28-.04.53-.08.76-.1.23-.02.43-.03.61-.03s.38.01.58.03c.2.02.42.05.65.1l-.02,11.52c-.11.03-.26.06-.47.1-.2.03-.42.05-.66.05-.27,0-.51-.02-.73-.06-.22-.04-.37-.07-.47-.09l-3.76-6.29v6.29c-.47.1-.9.14-1.29.14s-.82-.05-1.31-.14v-11.52Z"/>
          <path class="cls-1" d="M150.66,17.61c.16-.02.37-.05.61-.07s.52-.05.81-.07.59-.04.9-.06c.31-.02.6-.02.9-.02,2.03,0,3.57.51,4.63,1.52,1.05,1.02,1.58,2.53,1.58,4.54s-.54,3.54-1.61,4.49c-1.08.95-2.67,1.43-4.77,1.43-.54,0-1.06-.02-1.56-.07-.5-.05-.99-.1-1.48-.17v-11.52ZM153.52,26.83c.08.01.16.02.26.02h.31c.42,0,.81-.05,1.19-.15s.69-.28.96-.54.48-.61.64-1.05c.16-.44.23-1,.23-1.69s-.08-1.24-.24-1.69-.37-.81-.64-1.07c-.26-.26-.57-.45-.93-.56s-.73-.17-1.11-.17c-.22,0-.37,0-.47,0-.1,0-.16,0-.19,0v6.9Z"/>
          <path class="cls-1" d="M162.41,17.61c.29-.04.55-.08.79-.1s.45-.03.63-.03c.19,0,.41.01.65.03.24.02.5.05.78.1v11.52c-.57.1-1.04.14-1.42.14-.4,0-.88-.05-1.44-.14v-11.52Z"/>
          <path class="cls-1" d="M167.91,17.57h6.81c.04.24.08.46.1.66s.03.4.03.58c0,.35-.04.78-.13,1.27h-3.95v1.77h3.11c.1.47.15.89.15,1.26s-.05.8-.15,1.26h-3.11v2.29h4.05c.1.45.14.86.14,1.23,0,.4-.05.82-.14,1.27h-6.9v-11.6Z"/>
          <path class="cls-1" d="M177.11,17.61c.24-.04.45-.08.65-.1s.38-.03.56-.03c.19,0,.4.01.61.04.21.03.39.06.54.09l3.74,6.32v-6.32c.28-.04.53-.08.76-.1.23-.02.43-.03.61-.03s.38.01.58.03c.2.02.42.05.65.1l-.02,11.52c-.11.03-.26.06-.47.1-.2.03-.42.05-.66.05-.27,0-.51-.02-.73-.06-.22-.04-.37-.07-.47-.09l-3.76-6.29v6.29c-.47.1-.9.14-1.29.14s-.82-.05-1.31-.14v-11.52Z"/>
          <path class="cls-1" d="M188.44,17.61c.16-.02.37-.05.61-.07s.52-.05.81-.07.59-.04.9-.06c.31-.02.6-.02.9-.02,2.03,0,3.57.51,4.63,1.52,1.05,1.02,1.58,2.53,1.58,4.54s-.54,3.54-1.61,4.49c-1.08.95-2.67,1.43-4.77,1.43-.54,0-1.06-.02-1.56-.07-.5-.05-.99-.1-1.48-.17v-11.52ZM191.3,26.83c.08.01.16.02.26.02h.31c.42,0,.81-.05,1.19-.15s.69-.28.96-.54.48-.61.64-1.05c.16-.44.23-1,.23-1.69s-.08-1.24-.24-1.69-.37-.81-.64-1.07-.57-.45-.93-.56-.73-.17-1.11-.17c-.22,0-.37,0-.47,0-.1,0-.16,0-.19,0v6.9Z"/>
          <path class="cls-1" d="M204.97,29.36c-.88,0-1.64-.15-2.28-.44-.64-.3-1.17-.71-1.58-1.24-.41-.53-.72-1.16-.92-1.89-.2-.73-.3-1.52-.3-2.38s.1-1.66.3-2.4c.2-.74.51-1.37.92-1.91.41-.54.94-.96,1.58-1.27.64-.31,1.4-.46,2.28-.46s1.64.15,2.27.46c.63.31,1.16.73,1.57,1.27.41.54.72,1.17.92,1.91.2.74.3,1.54.3,2.4s-.1,1.65-.3,2.38-.51,1.36-.92,1.89c-.41.53-.94.95-1.57,1.24-.63.3-1.39.44-2.27.44ZM204.97,26.9c1.38,0,2.06-1.16,2.06-3.48s-.68-3.52-2.05-3.52-2.1,1.17-2.1,3.52c0,1.17.17,2.05.51,2.62.34.57.86.86,1.57.86Z"/>
        </g>
        <g>
          <path class="cls-1" d="M101.54,41.5h-3.57c-.2-.92-.29-1.78-.29-2.59,0-.76.1-1.6.29-2.52h9.36v17.02c0,1.24-.2,2.31-.59,3.19-.39.88-.93,1.6-1.6,2.14-.68.55-1.47.94-2.37,1.19-.91.25-1.88.38-2.93.38-.63,0-1.27-.05-1.9-.15-.63-.1-1.2-.22-1.7-.38-.02-.17-.04-.35-.05-.52-.01-.17-.02-.36-.02-.56,0-1.27.22-2.52.65-3.76.2.04.49.1.88.16.39.07.81.1,1.24.1.26,0,.54-.02.85-.05.31-.03.58-.13.84-.29.25-.16.46-.41.64-.74.17-.33.26-.79.26-1.37v-11.26Z"/>
          <path class="cls-1" d="M110.97,36.46c.63-.09,1.18-.15,1.64-.18.46-.03.89-.05,1.31-.05.37,0,.78.02,1.23.05.45.03.99.09,1.62.18v12.7c0,1.09.04,2.02.13,2.78.09.76.25,1.39.47,1.87.23.48.55.82.97,1.03.41.21.96.31,1.64.31s1.23-.1,1.65-.31c.42-.21.75-.55.98-1.03.23-.48.38-1.1.46-1.87.08-.76.11-1.69.11-2.78v-12.7c.65-.09,1.21-.15,1.65-.18.45-.03.86-.05,1.23-.05.39,0,.82.02,1.28.05.46.03,1,.09,1.64.18v13.39c0,1.61-.14,3.07-.41,4.35-.27,1.29-.75,2.38-1.42,3.29-.68.91-1.6,1.6-2.77,2.08-1.17.48-2.63.72-4.4.72s-3.23-.24-4.4-.72c-1.17-.48-2.09-1.17-2.77-2.08-.68-.91-1.15-2-1.42-3.29-.27-1.29-.41-2.74-.41-4.35v-13.39Z"/>
          <path class="cls-1" d="M132.76,36.46c.48-.09.92-.15,1.31-.2.39-.04.77-.07,1.15-.07.39,0,.8.03,1.23.08s.79.11,1.1.18l7.59,12.83v-12.83c.57-.09,1.08-.15,1.54-.2s.87-.07,1.24-.07.76.02,1.18.07.85.11,1.31.2l-.03,23.37c-.22.07-.53.13-.95.2s-.86.1-1.34.1c-.55,0-1.04-.04-1.47-.11-.44-.08-.75-.14-.95-.18l-7.63-12.76v12.76c-.96.2-1.83.29-2.62.29s-1.67-.1-2.65-.29v-23.37Z"/>
          <path class="cls-1" d="M158.62,41.5h-5.47c-.2-.94-.29-1.8-.29-2.59,0-.72.1-1.56.29-2.52h16.72c.09.48.15.93.2,1.34.04.41.07.81.07,1.18,0,.72-.09,1.58-.26,2.59h-5.47v18.33c-1.16.2-2.12.29-2.88.29-.81,0-1.78-.1-2.91-.29v-18.33Z"/>
          <path class="cls-1" d="M181.3,60.32c-1.79,0-3.33-.3-4.63-.9-1.3-.6-2.37-1.44-3.21-2.52-.84-1.08-1.46-2.36-1.87-3.83-.4-1.47-.61-3.08-.61-4.83s.2-3.37.61-4.86c.4-1.49,1.02-2.79,1.87-3.88.84-1.09,1.91-1.95,3.21-2.57,1.3-.62,2.84-.93,4.63-.93s3.33.31,4.61.93c1.29.62,2.35,1.48,3.19,2.57.84,1.09,1.46,2.38,1.87,3.88.4,1.49.61,3.11.61,4.86s-.2,3.35-.61,4.83c-.4,1.47-1.03,2.75-1.87,3.83-.84,1.08-1.9,1.92-3.19,2.52s-2.83.9-4.61.9ZM181.3,55.31c2.79,0,4.19-2.36,4.19-7.07s-1.39-7.13-4.16-7.13-4.25,2.38-4.25,7.13c0,2.38.34,4.15,1.03,5.32.69,1.17,1.75,1.75,3.19,1.75Z"/>
          <path class="cls-1" d="M199.76,49.94c-.78-.28-1.5-.62-2.14-1.01-.64-.39-1.19-.86-1.65-1.39-.46-.53-.81-1.15-1.06-1.85-.25-.7-.38-1.52-.38-2.45,0-1.16.2-2.18.59-3.08s.94-1.65,1.65-2.27c.71-.62,1.56-1.09,2.57-1.41,1-.32,2.13-.47,3.37-.47,1.11,0,2.19.11,3.22.33,1.04.22,2.14.53,3.32.95-.09.7-.25,1.47-.47,2.31-.23.84-.52,1.63-.87,2.37-.57-.24-1.23-.49-2-.75-.76-.26-1.71-.39-2.85-.39-.35,0-.68.03-1,.1-.32.07-.6.17-.85.31-.25.14-.45.34-.61.59-.15.25-.23.56-.23.93,0,.63.21,1.1.62,1.41.41.31.91.57,1.47.79l1.57.62c.92.37,1.74.75,2.47,1.13.73.38,1.36.84,1.88,1.37.52.53.93,1.18,1.21,1.93.28.75.43,1.66.43,2.73,0,1.16-.2,2.2-.61,3.13-.4.93-1,1.72-1.78,2.39-.79.67-1.75,1.18-2.9,1.54-1.15.36-2.46.54-3.94.54-1.35,0-2.55-.11-3.58-.33-1.04-.22-2.16-.56-3.35-1.01.09-.76.24-1.58.46-2.44.22-.86.48-1.74.79-2.63,2.01.87,3.75,1.31,5.24,1.31,1.11,0,1.98-.17,2.6-.51.62-.34.93-.92.93-1.75,0-.35-.07-.65-.2-.9-.13-.25-.31-.46-.52-.64-.22-.17-.46-.32-.74-.44-.27-.12-.55-.23-.83-.34l-1.83-.69Z"/>
        </g>
      </g>
    </g>
  </g>
</svg>