<?xml version="1.0" encoding="UTF-8"?>
<svg id="Capa_2" data-name="Capa 2" xmlns="http://www.w3.org/2000/svg" viewBox="0 0 26.61 18.83">
  <defs>
    <style>
      .cls-1 {
        fill: #0d7fc2;
      }
    </style>
  </defs>
  <g id="Layer_1" data-name="Layer 1">
    <path class="cls-1" d="M26.59,14.98c0,2.21-1.99,3.84-4.06,3.84H4.1c-2.2,0-3.87-1.63-4.1-3.75L.04,3.74C.05,1.65,2.02,0,4.07,0h18.46c2.22,0,4.08,1.76,4.08,3.96l-.02,11.01ZM21.77,2.71l-16.99-.02,8.54,5.2,8.44-5.18ZM24,14.68l-.06-10.11-10.66,6.36L2.68,4.55l-.04,10.45c0,.44.73,1.06,1.18,1.16h18.72c.77,0,1.46-.63,1.46-1.49Z"/>
  </g>
</svg>