<?xml version="1.0" encoding="UTF-8"?>
<svg id="Capa_2" data-name="Capa 2" xmlns="http://www.w3.org/2000/svg" viewBox="0 0 159.32 103.37">
  <defs>
    <style>
      .cls-1 {
        fill: #0d7fc2;
      }
    </style>
  </defs>
  <g id="Layer_1" data-name="Layer 1">
    <g>
      <path class="cls-1" d="M74.39,78.98c12.69,0,3.12-2.73,18.28,1.66-2.28,3.11-6.31,6.86-10.19,6.91l-20.25.28,6.35,11.04c.42.74.73,3.27.1,3.61s-2.25.78-3.22.78H29.57c-.89-.01-2.66-.61-3.2-.99s-.25-2.28.13-2.97l6.27-11.39-17.45-.2C7.05,87.61-.01,80.99,0,72.54L.08,24.82c.02-8.97,7.95-14.72,16.29-14.7l64.91.15c6.38.01,12.9,6.2,13.48,12.31.63,6.56.39,12.3.06,18.63-5.46-6.52-8.88-6.71-8.43-14.77.21-3.77-2.62-7.43-6.95-7.43l-64.07.06c-3.35,0-6.57,3.07-6.56,6.44l.07,47.03c0,3.99,4.02,6.43,7.49,6.43l58.03.02ZM55.45,94.51c-1.28-4.23-3.78-6.86-7.5-7.08-4.6-.28-7.01,2.17-7.53,6.91l15.03.17Z"/>
      <path class="cls-1" d="M159.16,103.36h-58.74s-.05-30.91-.05-30.91c-4.85.7-11.06,2.52-14.53-1.36l-19.32-21.53c-4.02-4.48-4.21-10.57-.05-14.55s10.6-3.58,14.58.92l15.03,16.96,29-7.72c16.77-4.47,33.2,10.2,33.96,27.44.46,10.29.25,19.37.12,30.75ZM151.45,95.84l-.26-24.59c-.11-10.14-11.38-20.41-21.81-18.95-12.55,1.75-23.66,5.43-35.81,7.78l-18.3-20.43c-.74-.82-3.93-.74-4.42.26-.41.83-.61,3.66.13,4.5l20.06,22.66,19.26-3.55c-1.41,3.92-2.05,7.93-2.1,12.01l-.27,20.33h43.52Z"/>
      <path class="cls-1" d="M150.26,20.57c0,11.36-9.21,20.57-20.57,20.57s-20.57-9.21-20.57-20.57S118.33,0,129.69,0s20.57,9.21,20.57,20.57ZM142.72,20.6c0-7.2-5.83-13.03-13.03-13.03s-13.03,5.83-13.03,13.03,5.83,13.03,13.03,13.03,13.03-5.83,13.03-13.03Z"/>
      <polygon class="cls-1" points="75.66 70.41 18.09 70.53 17.7 61.97 69.14 61.98 75.66 70.41"/>
      <path class="cls-1" d="M57.83,35.92l-39.84.02-.25-8.56,47.79.05c-3.34,2.45-5.43,4.46-7.7,8.48Z"/>
      <polygon class="cls-1" points="60.25 53.16 17.81 53.15 17.72 44.67 56.55 44.63 60.25 53.16"/>
    </g>
  </g>
</svg>