<?xml version="1.0" encoding="UTF-8"?>
<svg id="Capa_2" data-name="Capa 2" xmlns="http://www.w3.org/2000/svg" viewBox="0 0 22.73 24.86">
  <defs>
    <style>
      .cls-1 {
        fill: #0d7fc2;
      }
    </style>
  </defs>
  <g id="Layer_1" data-name="Layer 1">
    <path class="cls-1" d="M12.99,17.89c1.92,1.22,1.63-1.61,3.39-2,2,.55,3.8,1.37,5.62,2.31s.09,5.42-3.07,6.37c-5.02,1.51-10.08-3.32-13.08-6.83C3.01,14.43-.88,9,.18,4.45.81,1.71,3.01-.03,5.81,0c.84,0,1.66.31,1.92,1.25.45,1.67.8,3.32,1.14,5.1.09.46-.23,1.15-.62,1.32l-1.55.68c-.41.18-.7.62-.53,1.14,1.22,3.59,3.64,6.38,6.82,8.4Z"/>
  </g>
</svg>