<?xml version="1.0" encoding="UTF-8"?>
<svg id="Capa_2" data-name="Capa 2" xmlns="http://www.w3.org/2000/svg" viewBox="0 0 142.91 142.91">
  <defs>
    <style>
      .cls-1 {
        fill: #0056a4;
      }

      .cls-2 {
        fill: #fab600;
      }
    </style>
  </defs>
  <g id="Layer_1" data-name="Layer 1">
    <g>
      <circle class="cls-2" cx="71.46" cy="71.46" r="71.46"/>
      <g>
        <path class="cls-1" d="M61.97,74.21c5.77-16.52,17.13-30.42,31.83-39.41-6.83-3.18-14.92-5.03-23.59-5.03-21.62,0-39.62,11.44-43.55,26.57,14.06,1.17,26.55,7.85,35.32,17.86Z"/>
        <path class="cls-1" d="M108.69,46.2c-20.8,5.84-37.39,21.73-44.2,42.11-8.64-11.26-22.24-18.52-37.54-18.48h0c1.95,6.39,6.42,12.07,12.6,16.44h0c13.11,9.54,30.96,9.44,40.8,15.89.71.46,1.36.98,1.96,1.55,1.8,1.65,3.09,3.8,3.69,6.18.38,1.49,2.18,2.07,3.41,1.16,7.5-5.55,14.04-11.39,19.47-20.04,10.84-17.28,9.67-32.69-.18-44.79Z"/>
      </g>
    </g>
  </g>
</svg>