<?xml version="1.0" encoding="UTF-8"?>
<svg id="Capa_2" data-name="Capa 2" xmlns="http://www.w3.org/2000/svg" viewBox="0 0 27.42 27.56">
  <defs>
    <style>
      .cls-1 {
        fill: #0d7fc2;
      }
    </style>
  </defs>
  <g id="Layer_1" data-name="Layer 1">
    <g>
      <path class="cls-1" d="M0,27.56l1.91-7.08C-1.03,15.35-.33,9.01,3.51,4.64S13.54-1.21,18.95,1.03c7.28,3.01,10.47,11.44,7.16,18.46-3.35,7.1-11.95,9.95-18.9,6.19l-7.21,1.88ZM3.26,24.32l4.32-1.1c5.03,3.23,11.55,2.05,15.17-2.6s3.08-11.14-1.14-15.17-10.78-4.22-15.23-.42-5.33,10.23-1.99,15.1l-1.13,4.2Z"/>
      <path class="cls-1" d="M17.62,15.38l2.97,1.46c.17.6.06,1.47-.33,1.99-.83,1.12-2.29,1.62-3.67,1.32s-2.83-.84-4.07-1.67c-2.26-1.52-4.14-3.61-5.3-6.05-.83-1.74-.42-3.8,1.11-4.88.46-.33,1.27-.22,1.8-.02l1.32,3.15c.06.15-.1.53-.18.64l-1.01,1.37c1.19,2.18,2.93,3.74,5.3,4.5l1.44-1.7c.08-.09.49-.16.61-.1Z"/>
    </g>
  </g>
</svg>